<svg id="Layer_1" data-name="Layer 1" xmlns="http://www.w3.org/2000/svg" viewBox="0 0 30 30"><defs><style>.cls-1{fill:#f16823;}.cls-2{fill:#4d4d4d;}.cls-3{fill:#d80027;}.cls-4{fill:#fefdfd;}.cls-5{fill:#e25e24;}</style></defs><path class="cls-1" d="M30,6.8V19.48H24.87c-.17,0-.22-.14-.22-.37,0-3.87,0-7.73,0-11.59V7.17a.6.6,0,0,0-.35.26l-8.95,9c-.23.24-.35.25-.59,0q-4.45-4.48-8.92-8.93A2.9,2.9,0,0,1,5.6,7.1l-.13.07v.38c0,3.84,0,7.67,0,11.51,0,.27-.06.38-.23.42L5,19.5l-1.75,0H0V6.8A6.79,6.79,0,0,1,6.8,0H23.2A6.79,6.79,0,0,1,30,6.8Z"/><path class="cls-2" d="M30,22.49v.71A6.79,6.79,0,0,1,23.2,30H6.8A6.79,6.79,0,0,1,0,23.2v-.71H8.4c.23,0,.26-.17.26-.46V19.48c0-1.59,0-3.18,0-4.78.15,0,.22.16.31.25l4.53,4.53,1.31,1.32c.2.2.31.21.51,0l1.32-1.32L21.13,15a1.8,1.8,0,0,0,.24-.35.49.49,0,0,1,.11.43c0,1.47,0,3,0,4.42v2.63c0,.25.05.36.24.38H30Z"/><path class="cls-3" d="M30,19.48v3H21.72c-.19,0-.24-.13-.24-.38V19.48c0-1.47,0-2.95,0-4.42a.49.49,0,0,0-.11-.43,1.8,1.8,0,0,1-.24.35l-4.49,4.5L15.32,20.8c-.2.21-.31.2-.51,0L13.5,19.48,9,15c-.09-.09-.16-.21-.31-.25,0,1.6,0,3.19,0,4.78V22c0,.29,0,.43-.26.46H0v-3H3.28L5,19.5l.22,0c.17,0,.23-.15.23-.42,0-3.84,0-7.67,0-11.51V7.17L5.6,7.1a2.9,2.9,0,0,0,.25.36q4.47,4.45,8.92,8.93c.24.24.36.23.59,0l9-8.95a.6.6,0,0,1,.35-.26v.35c0,3.86,0,7.72,0,11.59,0,.23.05.34.22.37H30Z"/><path class="cls-4" d="M30,19.48v3H21.72c-.19,0-.24-.13-.24-.38V19.48c0-1.47,0-2.95,0-4.42a.49.49,0,0,0-.11-.43,1.8,1.8,0,0,1-.24.35l-4.49,4.5L15.32,20.8c-.2.21-.31.2-.51,0L13.5,19.48,10.06,16,9,15c-.09-.09-.16-.21-.31-.25V22c0,.29,0,.43-.26.46H0v-3H3.28L5,19.5l.22,0c.17,0,.23-.15.23-.42,0-3.84,0-7.67,0-11.51V7.17L5.6,7.1a2.9,2.9,0,0,0,.25.36q3,3,6.07,6.08l2.85,2.85c.24.24.36.23.59,0l9-8.95a.6.6,0,0,1,.35-.26v.35c0,3.86,0,7.72,0,11.59,0,.23.05.34.22.37H30Z"/><path class="cls-5" d="M14.28,5.1a16.24,16.24,0,0,1-2.36,8.44q-3-3-6.07-6.08A2.9,2.9,0,0,1,5.6,7.1l-.13.07v.38c0,3.84,0,7.67,0,11.51,0,.27-.06.38-.23.42L5,19.5l-1.75,0H0V7A7,7,0,0,1,7,0h6.47A16.39,16.39,0,0,1,14.28,5.1Z"/></svg>