<svg id="ton" xmlns="http://www.w3.org/2000/svg" xmlns:xlink="http://www.w3.org/1999/xlink" width="30" height="30" viewBox="0 0 30 30">
  <defs>
    <clipPath id="clip-path">
      <rect id="Rectangle_186" data-name="Rectangle 186" width="30" height="30" fill="none"/>
    </clipPath>
  </defs>
  <g id="Group_419" data-name="Group 419" clip-path="url(#clip-path)">
    <g id="binancecoin">
      <g id="Layer_51" data-name="Layer 51">
        <g id="Group_14" data-name="Group 14">
          <rect id="Rectangle_6" data-name="Rectangle 6" width="30" height="30" rx="7" fill="#fd9903"/>
        </g>
      </g>
    </g>
  </g>
  <path id="Path_377" data-name="Path 377" d="M15,7h6.31a2.61,2.61,0,0,1,2.76,2.06,2.8,2.8,0,0,1-.33,2.18L17,22.8l-1.08,1.86a1,1,0,0,1-1.82,0c-2.57-4.47-5.13-9-7.72-13.43A2.92,2.92,0,0,1,5.93,9,2.62,2.62,0,0,1,8.52,7Zm1,13.55h.07c.45-.77.9-1.55,1.36-2.32C18.92,15.62,20.47,13,22,10.34c.46-.8.12-1.4-.8-1.41H16.29C16,8.93,16,9,16,9.26Zm-2,0h.07V9.28c0-.2,0-.35-.27-.35H8.69c-.79,0-1.05.5-.67,1.17l5.37,9.36Z" transform="translate(30.016 30.237) rotate(180)" fill="#fefefe"/>
</svg>
