<svg id="Layer_1" data-name="Layer 1" xmlns="http://www.w3.org/2000/svg" xmlns:xlink="http://www.w3.org/1999/xlink" viewBox="0 0 30 30"><defs><style>.cls-1{fill:none;}.cls-2{clip-path:url(#clip-path);}.cls-3{fill:#0088cb;}.cls-4{fill:#0690c6;}.cls-5{fill:#fefefe;}</style><clipPath id="clip-path"><rect class="cls-1" width="30" height="30"/></clipPath></defs><g class="cls-2"><g id="binancecoin"><g id="Layer_51" data-name="Layer 51"><g id="Group_14" data-name="Group 14"><rect id="Rectangle_6" data-name="Rectangle 6" class="cls-3" width="30" height="30" rx="7"/><path id="Intersection_1" data-name="Intersection 1" class="cls-4" d="M0,7A7,7,0,0,1,7,0h6.66a16.49,16.49,0,0,1,.82,5.17A16.54,16.54,0,0,1,0,21.6Z"/></g></g></g></g><path class="cls-5" d="M15,7h6.31a2.61,2.61,0,0,1,2.76,2.06,2.8,2.8,0,0,1-.33,2.18L17,22.8l-1.08,1.86a1,1,0,0,1-1.82,0c-2.57-4.47-5.13-9-7.72-13.43A2.92,2.92,0,0,1,5.93,9,2.62,2.62,0,0,1,8.52,7Zm1,13.55.07,0c.45-.77.9-1.55,1.36-2.32C18.92,15.62,20.47,13,22,10.34c.46-.8.12-1.4-.8-1.41H16.29C16,8.93,16,9,16,9.26Q16,14.9,16,20.55Zm-2,0,.07,0V9.28c0-.2,0-.35-.27-.35-1.71,0-3.41,0-5.11,0-.79,0-1.05.5-.67,1.17l5.37,9.36Z"/></svg>